<?xml version="1.0" encoding="utf-8"?>
<svg version="1.1" id="Layer_1" xmlns="http://www.w3.org/2000/svg" xmlns:xlink="http://www.w3.org/1999/xlink" x="0px" y="0px"
	 width="500px" height="500px" viewBox="0 0 500 500" style="enable-background:new 0 0 500 500;" xml:space="preserve">
<style type="text/css">
	.st0{fill:#71845C;}
	.st1{fill:#A17299;}
</style>
<path class="st0" d="M344,131.8c-4.1,0-7.7,1.9-9.5,4.8c-5.3,0.6-10.6,0.8-16,0.6c-0.6,0-4.3-0.2-7.6-0.5c-0.3-4.9-1.2-9.6-2.8-14.1
	c2.9-1.2,5.8-2.2,8.8-3.1c2.3,1.6,5.5,1.9,8.6,0.6c4.5-1.9,6.8-6.4,5.2-10.2s-6.5-5.3-10.9-3.4c-3.1,1.3-5.1,3.9-5.6,6.6
	c-2.7,1.5-5.4,2.9-8.3,4.1c-1.9-4.1-4.4-8-7.2-11.4c2.1-2.6,4.7-5.4,5.1-5.9c3.6-4,7.5-7.6,11.7-10.9c3.3,0.7,7.2-0.4,10.1-3.3
	c4.2-4.2,4.7-10.5,1.2-14c-3.5-3.5-9.8-3-14,1.2c-2.9,2.9-4,6.8-3.3,10.1c-3.3,4.2-6.9,8.1-10.9,11.7c-0.5,0.4-3.2,2.9-5.8,5
	c-3.6-3.2-7.6-5.9-11.9-8c1.2-2.9,2.5-5.7,4-8.4c2.7-0.5,5.3-2.6,6.5-5.7c1.8-4.5,0.3-9.4-3.5-10.9c-3.8-1.5-8.3,0.8-10.1,5.3
	c-1.3,3.1-0.9,6.4,0.7,8.6c-0.8,3-1.8,5.9-3,8.7c-4.2-1.5-8.6-2.5-13.2-3c-0.3-3.3-0.5-7.1-0.6-7.8c-0.2-5.4,0-10.7,0.6-16
	c2.8-1.8,4.8-5.4,4.8-9.5c0-5.9-4-10.7-9-10.7c-5,0-9,4.8-9,10.7c0,4.1,1.9,7.7,4.8,9.5c0.6,5.3,0.8,10.6,0.6,16
	c0,0.6-0.2,4.3-0.5,7.6c-4.9,0.3-9.6,1.2-14.1,2.8c-1.2-2.9-2.2-5.8-3.1-8.8c1.6-2.3,1.9-5.5,0.6-8.6c-1.9-4.5-6.4-6.8-10.2-5.2
	c-3.8,1.6-5.3,6.5-3.4,10.9c1.3,3.1,3.9,5.1,6.6,5.6c1.5,2.7,2.9,5.4,4.1,8.3c-4.1,1.9-8,4.4-11.4,7.2c-2.6-2.1-5.4-4.7-5.9-5.1
	c-4-3.6-7.6-7.5-10.9-11.7c0.7-3.3-0.4-7.2-3.3-10.1c-4.2-4.2-10.5-4.7-14-1.2c-3.5,3.5-3,9.8,1.2,14c2.9,2.9,6.8,4,10.1,3.3
	c4.2,3.3,8.1,6.9,11.7,10.9c0.4,0.5,2.9,3.2,5,5.8c-3.2,3.6-5.9,7.6-8,11.9c-2.9-1.2-5.7-2.5-8.4-4c-0.5-2.7-2.6-5.3-5.7-6.5
	c-4.5-1.8-9.4-0.3-10.9,3.5c-1.5,3.8,0.8,8.3,5.3,10.1c3.1,1.3,6.4,0.9,8.6-0.7c3,0.8,5.9,1.8,8.7,3c-1.5,4.2-2.5,8.6-3,13.2
	c-3.3,0.3-7.1,0.5-7.8,0.6c-5.4,0.2-10.7,0-16-0.6c-1.8-2.8-5.4-4.8-9.5-4.8c-5.9,0-10.7,4-10.7,9s4.8,9,10.7,9
	c4.1,0,7.7-1.9,9.5-4.8c5.3-0.6,10.6-0.8,16-0.6c0.6,0,4.3,0.2,7.6,0.5c0.3,4.9,1.2,9.6,2.8,14.1c-2.9,1.2-5.8,2.2-8.8,3.1
	c-2.3-1.6-5.5-1.9-8.6-0.6c-4.5,1.9-6.8,6.4-5.2,10.2c1.6,3.8,6.5,5.3,10.9,3.4c3.1-1.3,5.1-3.9,5.6-6.6c2.7-1.5,5.4-2.9,8.3-4.1
	c1.9,4.1,4.4,8,7.2,11.4c-2.1,2.6-4.7,5.4-5.1,5.9c-3.6,4-7.5,7.6-11.7,10.9c-3.3-0.7-7.2,0.4-10.1,3.3c-4.2,4.2-4.7,10.5-1.2,14
	c3.5,3.5,9.8,3,14-1.2c2.9-2.9,4-6.8,3.3-10.1c3.3-4.2,6.9-8.1,10.9-11.7c0.5-0.4,3.2-2.9,5.8-5c3.6,3.2,7.6,5.9,11.9,8
	c-1.2,2.9-2.5,5.7-4,8.4c-2.7,0.5-5.3,2.6-6.5,5.7c-1.8,4.5-0.3,9.4,3.5,10.9c3.8,1.5,8.3-0.8,10.1-5.3c1.3-3.1,0.9-6.4-0.7-8.6
	c0.8-3,1.8-5.9,3-8.7c4.2,1.5,8.6,2.5,13.2,3c0.3,3.3,0.5,7.1,0.6,7.8c0.2,5.4,0,10.7-0.6,16c-2.8,1.8-4.8,5.4-4.8,9.5
	c0,5.9,4,10.7,9,10.7c5,0,9-4.8,9-10.7c0-4.1-1.9-7.7-4.8-9.5c-0.6-5.3-0.8-10.6-0.6-16c0-0.6,0.2-4.3,0.5-7.6
	c4.9-0.3,9.6-1.2,14.1-2.8c1.2,2.9,2.2,5.8,3.1,8.8c-1.6,2.3-1.9,5.5-0.6,8.6c1.9,4.5,6.4,6.8,10.2,5.2s5.3-6.5,3.4-10.9
	c-1.3-3.1-3.9-5.1-6.6-5.6c-1.5-2.7-2.9-5.4-4.1-8.3c4.1-1.9,8-4.4,11.4-7.2c2.6,2.1,5.4,4.7,5.9,5.1c4,3.6,7.6,7.5,10.9,11.7
	c-0.7,3.3,0.4,7.2,3.3,10.1c4.2,4.2,10.5,4.7,14,1.2c3.5-3.5,3-9.8-1.2-14c-2.9-2.9-6.8-4-10.1-3.3c-4.2-3.3-8.1-6.9-11.7-10.9
	c-0.4-0.5-2.9-3.2-5-5.8c3.2-3.6,5.9-7.6,8-11.9c2.9,1.2,5.7,2.5,8.4,4c0.5,2.7,2.6,5.3,5.7,6.5c4.5,1.8,9.4,0.3,10.9-3.5
	c1.5-3.8-0.8-8.3-5.3-10.1c-3.1-1.3-6.4-0.9-8.6,0.7c-3-0.8-5.9-1.8-8.7-3c1.5-4.2,2.5-8.6,3-13.2c3.3-0.3,7.1-0.5,7.8-0.6
	c5.4-0.2,10.7,0,16,0.6c1.8,2.8,5.4,4.8,9.5,4.8c5.9,0,10.7-4,10.7-9S349.9,131.8,344,131.8z M240.9,171.6c-3,0-5.5-2.4-5.5-5.5
	c0-3,2.4-5.5,5.5-5.5c3,0,5.5,2.4,5.5,5.5C246.3,169.2,243.9,171.6,240.9,171.6z M234.2,153.1c-8.9,0-16.1-7.2-16.1-16.1
	c0-8.9,7.2-16.1,16.1-16.1c8.9,0,16.1,7.2,16.1,16.1C250.2,145.9,243,153.1,234.2,153.1z M284.8,128.8c0,3-2.4,5.5-5.5,5.5
	s-5.5-2.4-5.5-5.5c0-3,2.4-5.5,5.5-5.5S284.8,125.7,284.8,128.8z M277.7,104.6c2.4,0,4.3,1.9,4.3,4.3c0,2.4-1.9,4.3-4.3,4.3
	s-4.3-1.9-4.3-4.3C273.4,106.5,275.3,104.6,277.7,104.6z M258.5,119.8c-3,0-5.5-2.4-5.5-5.5c0-3,2.4-5.5,5.5-5.5
	c3,0,5.5,2.4,5.5,5.5C263.9,117.3,261.5,119.8,258.5,119.8z M273.9,173.8c-6.9,0-12.4-5.6-12.4-12.4c0-6.9,5.6-12.4,12.4-12.4
	c6.9,0,12.4,5.6,12.4,12.4C286.3,168.2,280.8,173.8,273.9,173.8z"/>
<path d="M455,317c-4.1,0-7.7,1.9-9.5,4.8c-5.3,0.6-10.6,0.8-16,0.6c-0.6,0-4.3-0.2-7.6-0.5c-0.3-4.9-1.2-9.6-2.8-14.1
	c2.9-1.2,5.8-2.2,8.8-3.1c2.3,1.6,5.5,1.9,8.6,0.6c4.5-1.9,6.8-6.4,5.2-10.2c-1.6-3.8-6.5-5.3-10.9-3.4c-3.1,1.3-5.1,3.9-5.6,6.6
	c-2.7,1.5-5.4,2.9-8.3,4.1c-1.9-4.1-4.4-8-7.2-11.4c2.1-2.6,4.7-5.4,5.1-5.9c3.6-4,7.5-7.6,11.7-10.9c3.3,0.7,7.2-0.4,10.1-3.3
	c4.2-4.2,4.7-10.5,1.2-14c-3.5-3.5-9.8-3-14,1.2c-2.9,2.9-4,6.8-3.3,10.1c-3.3,4.2-6.9,8.1-10.9,11.7c-0.5,0.4-3.2,2.9-5.8,5
	c-3.6-3.2-7.6-5.9-11.9-8c1.2-2.9,2.5-5.7,4-8.4c2.7-0.5,5.3-2.6,6.5-5.7c1.8-4.5,0.3-9.4-3.5-10.9c-3.8-1.5-8.3,0.8-10.1,5.3
	c-1.3,3.1-0.9,6.4,0.7,8.6c-0.8,3-1.8,5.9-3,8.7c-4.2-1.5-8.6-2.5-13.2-3c-0.3-3.3-0.5-7.1-0.6-7.8c-0.2-5.4,0-10.7,0.6-16
	c2.8-1.8,4.8-5.4,4.8-9.5c0-5.9-4-10.7-9-10.7c-5,0-9,4.8-9,10.7c0,4.1,1.9,7.7,4.8,9.5c0.6,5.3,0.8,10.6,0.6,16
	c0,0.6-0.2,4.3-0.5,7.6c-4.9,0.3-9.6,1.2-14.1,2.8c-1.2-2.9-2.2-5.8-3.1-8.8c1.6-2.3,1.9-5.5,0.6-8.6c-1.9-4.5-6.4-6.8-10.2-5.2
	c-3.8,1.6-5.3,6.5-3.4,10.9c1.3,3.1,3.9,5.1,6.6,5.6c1.5,2.7,2.9,5.4,4.1,8.3c-4.1,1.9-8,4.4-11.4,7.2c-2.6-2.1-5.4-4.7-5.9-5.1
	c-4-3.6-7.6-7.5-10.9-11.7c0.7-3.3-0.4-7.2-3.3-10.1c-4.2-4.2-10.5-4.7-14-1.2c-3.5,3.5-3,9.8,1.2,14c2.9,2.9,6.8,4,10.1,3.3
	c4.2,3.3,8.1,6.9,11.7,10.9c0.4,0.5,2.9,3.2,5,5.8c-3.2,3.6-5.9,7.6-8,11.9c-2.9-1.2-5.7-2.5-8.4-4c-0.5-2.7-2.6-5.3-5.7-6.5
	c-4.5-1.8-9.4-0.3-10.9,3.5c-1.5,3.8,0.8,8.3,5.3,10.1c3.1,1.3,6.4,0.9,8.6-0.7c3,0.8,5.9,1.8,8.7,3c-1.5,4.2-2.5,8.6-3,13.2
	c-3.3,0.3-7.1,0.5-7.8,0.6c-5.4,0.2-10.7,0-16-0.6c-1.8-2.8-5.4-4.8-9.5-4.8c-5.9,0-10.7,4-10.7,9c0,5,4.8,9,10.7,9
	c4.1,0,7.7-1.9,9.5-4.8c5.3-0.6,10.6-0.8,16-0.6c0.6,0,4.3,0.2,7.6,0.5c0.3,4.9,1.2,9.6,2.8,14.1c-2.9,1.2-5.8,2.2-8.8,3.1
	c-2.3-1.6-5.5-1.9-8.6-0.6c-4.5,1.9-6.8,6.4-5.2,10.2c1.6,3.8,6.5,5.3,10.9,3.4c3.1-1.3,5.1-3.9,5.6-6.6c2.7-1.5,5.4-2.9,8.3-4.1
	c1.9,4.1,4.4,8,7.2,11.4c-2.1,2.6-4.7,5.4-5.1,5.9c-3.6,4-7.5,7.6-11.7,10.9c-3.3-0.7-7.2,0.4-10.1,3.3c-4.2,4.2-4.7,10.5-1.2,14
	c3.5,3.5,9.8,3,14-1.2c2.9-2.9,4-6.8,3.3-10.1c3.3-4.2,6.9-8.1,10.9-11.7c0.5-0.4,3.2-2.9,5.8-5c3.6,3.2,7.6,5.9,11.9,8
	c-1.2,2.9-2.5,5.7-4,8.4c-2.7,0.5-5.3,2.6-6.5,5.7c-1.8,4.5-0.3,9.4,3.5,10.9c3.8,1.5,8.3-0.8,10.1-5.3c1.3-3.1,0.9-6.4-0.7-8.6
	c0.8-3,1.8-5.9,3-8.7c4.2,1.5,8.6,2.5,13.2,3c0.3,3.3,0.5,7.1,0.6,7.8c0.2,5.4,0,10.7-0.6,16c-2.8,1.8-4.8,5.4-4.8,9.5
	c0,5.9,4,10.7,9,10.7c5,0,9-4.8,9-10.7c0-4.1-1.9-7.7-4.8-9.5c-0.6-5.3-0.8-10.6-0.6-16c0-0.6,0.2-4.3,0.5-7.6
	c4.9-0.3,9.6-1.2,14.1-2.8c1.2,2.9,2.2,5.8,3.1,8.8c-1.6,2.3-1.9,5.5-0.6,8.6c1.9,4.5,6.4,6.8,10.2,5.2s5.3-6.5,3.4-10.9
	c-1.3-3.1-3.9-5.1-6.6-5.6c-1.5-2.7-2.9-5.4-4.1-8.3c4.1-1.9,8-4.4,11.4-7.2c2.6,2.1,5.4,4.7,5.9,5.1c4,3.6,7.6,7.5,10.9,11.7
	c-0.7,3.3,0.4,7.2,3.3,10.1c4.2,4.2,10.5,4.7,14,1.2c3.5-3.5,3-9.8-1.2-14c-2.9-2.9-6.8-4-10.1-3.3c-4.2-3.3-8.1-6.9-11.7-10.9
	c-0.4-0.5-2.9-3.2-5-5.8c3.2-3.6,5.9-7.6,8-11.9c2.9,1.2,5.7,2.5,8.4,4c0.5,2.7,2.6,5.3,5.7,6.5c4.5,1.8,9.4,0.3,10.9-3.5
	c1.5-3.8-0.8-8.3-5.3-10.1c-3.1-1.3-6.4-0.9-8.6,0.7c-3-0.8-5.9-1.8-8.7-3c1.5-4.2,2.5-8.6,3-13.2c3.3-0.3,7.1-0.5,7.8-0.6
	c5.4-0.2,10.7,0,16,0.6c1.8,2.8,5.4,4.8,9.5,4.8c5.9,0,10.7-4,10.7-9S460.9,317,455,317z M351.9,356.8c-3,0-5.5-2.4-5.5-5.5
	c0-3,2.4-5.5,5.5-5.5c3,0,5.5,2.4,5.5,5.5C357.3,354.4,354.9,356.8,351.9,356.8z M345.2,338.3c-8.9,0-16.1-7.2-16.1-16.1
	c0-8.9,7.2-16.1,16.1-16.1c8.9,0,16.1,7.2,16.1,16.1C361.2,331.1,354,338.3,345.2,338.3z M395.8,313.9c0,3-2.4,5.5-5.5,5.5
	c-3,0-5.5-2.4-5.5-5.5c0-3,2.4-5.5,5.5-5.5C393.4,308.5,395.8,310.9,395.8,313.9z M388.7,289.8c2.4,0,4.3,1.9,4.3,4.3
	c0,2.4-1.9,4.3-4.3,4.3s-4.3-1.9-4.3-4.3C384.5,291.7,386.4,289.8,388.7,289.8z M369.5,304.9c-3,0-5.5-2.4-5.5-5.5
	c0-3,2.4-5.5,5.5-5.5c3,0,5.5,2.4,5.5,5.5C374.9,302.5,372.5,304.9,369.5,304.9z M384.9,358.9c-6.9,0-12.4-5.6-12.4-12.4
	c0-6.9,5.6-12.4,12.4-12.4c6.9,0,12.4,5.6,12.4,12.4C397.3,353.4,391.8,358.9,384.9,358.9z"/>
<path class="st1" d="M230.1,317c-4.1,0-7.7,1.9-9.5,4.8c-5.3,0.6-10.6,0.8-16,0.6c-0.6,0-4.3-0.2-7.6-0.5c-0.3-4.9-1.2-9.6-2.8-14.1
	c2.9-1.2,5.8-2.2,8.8-3.1c2.3,1.6,5.5,1.9,8.6,0.6c4.5-1.9,6.8-6.4,5.2-10.2c-1.6-3.8-6.5-5.3-10.9-3.4c-3.1,1.3-5.1,3.9-5.6,6.6
	c-2.7,1.5-5.4,2.9-8.3,4.1c-1.9-4.1-4.4-8-7.2-11.4c2.1-2.6,4.7-5.4,5.1-5.9c3.6-4,7.5-7.6,11.7-10.9c3.3,0.7,7.2-0.4,10.1-3.3
	c4.2-4.2,4.7-10.5,1.2-14c-3.5-3.5-9.8-3-14,1.2c-2.9,2.9-4,6.8-3.3,10.1c-3.3,4.2-6.9,8.1-10.9,11.7c-0.5,0.4-3.2,2.9-5.8,5
	c-3.6-3.2-7.6-5.9-11.9-8c1.2-2.9,2.5-5.7,4-8.4c2.7-0.5,5.3-2.6,6.5-5.7c1.8-4.5,0.3-9.4-3.5-10.9c-3.8-1.5-8.3,0.8-10.1,5.3
	c-1.3,3.1-0.9,6.4,0.7,8.6c-0.8,3-1.8,5.9-3,8.7c-4.2-1.5-8.6-2.5-13.2-3c-0.3-3.3-0.5-7.1-0.6-7.8c-0.2-5.4,0-10.7,0.6-16
	c2.8-1.8,4.8-5.4,4.8-9.5c0-5.9-4-10.7-9-10.7s-9,4.8-9,10.7c0,4.1,1.9,7.7,4.8,9.5c0.6,5.3,0.8,10.6,0.6,16c0,0.6-0.2,4.3-0.5,7.6
	c-4.9,0.3-9.6,1.2-14.1,2.8c-1.2-2.9-2.2-5.8-3.1-8.8c1.6-2.3,1.9-5.5,0.6-8.6c-1.9-4.5-6.4-6.8-10.2-5.2c-3.8,1.6-5.3,6.5-3.4,10.9
	c1.3,3.1,3.9,5.1,6.6,5.6c1.5,2.7,2.9,5.4,4.1,8.3c-4.1,1.9-8,4.4-11.4,7.2c-2.6-2.1-5.4-4.7-5.9-5.1c-4-3.6-7.6-7.5-10.9-11.7
	c0.7-3.3-0.4-7.2-3.3-10.1c-4.2-4.2-10.5-4.7-14-1.2c-3.5,3.5-3,9.8,1.2,14c2.9,2.9,6.8,4,10.1,3.3c4.2,3.3,8.1,6.9,11.7,10.9
	c0.4,0.5,2.9,3.2,5,5.8c-3.2,3.6-5.9,7.6-8,11.9c-2.9-1.2-5.7-2.5-8.4-4c-0.5-2.7-2.6-5.3-5.7-6.5c-4.5-1.8-9.4-0.3-10.9,3.5
	c-1.5,3.8,0.8,8.3,5.3,10.1c3.1,1.3,6.4,0.9,8.6-0.7c3,0.8,5.9,1.8,8.7,3c-1.5,4.2-2.5,8.6-3,13.2c-3.3,0.3-7.1,0.5-7.8,0.6
	c-5.4,0.2-10.7,0-16-0.6c-1.8-2.8-5.4-4.8-9.5-4.8c-5.9,0-10.7,4-10.7,9c0,5,4.8,9,10.7,9c4.1,0,7.7-1.9,9.5-4.8
	c5.3-0.6,10.6-0.8,16-0.6c0.6,0,4.3,0.2,7.6,0.5c0.3,4.9,1.2,9.6,2.8,14.1c-2.9,1.2-5.8,2.2-8.8,3.1c-2.3-1.6-5.5-1.9-8.6-0.6
	c-4.5,1.9-6.8,6.4-5.2,10.2c1.6,3.8,6.5,5.3,10.9,3.4c3.1-1.3,5.1-3.9,5.6-6.6c2.7-1.5,5.4-2.9,8.3-4.1c1.9,4.1,4.4,8,7.2,11.4
	c-2.1,2.6-4.7,5.4-5.1,5.9c-3.6,4-7.5,7.6-11.7,10.9c-3.3-0.7-7.2,0.4-10.1,3.3c-4.2,4.2-4.7,10.5-1.2,14c3.5,3.5,9.8,3,14-1.2
	c2.9-2.9,4-6.8,3.3-10.1c3.3-4.2,6.9-8.1,10.9-11.7c0.5-0.4,3.2-2.9,5.8-5c3.6,3.2,7.6,5.9,11.9,8c-1.2,2.9-2.5,5.7-4,8.4
	c-2.7,0.5-5.3,2.6-6.5,5.7c-1.8,4.5-0.3,9.4,3.5,10.9c3.8,1.5,8.3-0.8,10.1-5.3c1.3-3.1,0.9-6.4-0.7-8.6c0.8-3,1.8-5.9,3-8.7
	c4.2,1.5,8.6,2.5,13.2,3c0.3,3.3,0.5,7.1,0.6,7.8c0.2,5.4,0,10.7-0.6,16c-2.8,1.8-4.8,5.4-4.8,9.5c0,5.9,4,10.7,9,10.7s9-4.8,9-10.7
	c0-4.1-1.9-7.7-4.8-9.5c-0.6-5.3-0.8-10.6-0.6-16c0-0.6,0.2-4.3,0.5-7.6c4.9-0.3,9.6-1.2,14.1-2.8c1.2,2.9,2.2,5.8,3.1,8.8
	c-1.6,2.3-1.9,5.5-0.6,8.6c1.9,4.5,6.4,6.8,10.2,5.2c3.8-1.6,5.3-6.5,3.4-10.9c-1.3-3.1-3.9-5.1-6.6-5.6c-1.5-2.7-2.9-5.4-4.1-8.3
	c4.1-1.9,8-4.4,11.4-7.2c2.6,2.1,5.4,4.7,5.9,5.1c4,3.6,7.6,7.5,10.9,11.7c-0.7,3.3,0.4,7.2,3.3,10.1c4.2,4.2,10.5,4.7,14,1.2
	c3.5-3.5,3-9.8-1.2-14c-2.9-2.9-6.8-4-10.1-3.3c-4.2-3.3-8.1-6.9-11.7-10.9c-0.4-0.5-2.9-3.2-5-5.8c3.2-3.6,5.9-7.6,8-11.9
	c2.9,1.2,5.7,2.5,8.4,4c0.5,2.7,2.6,5.3,5.7,6.5c4.5,1.8,9.4,0.3,10.9-3.5c1.5-3.8-0.8-8.3-5.3-10.1c-3.1-1.3-6.4-0.9-8.6,0.7
	c-3-0.8-5.9-1.8-8.7-3c1.5-4.2,2.5-8.6,3-13.2c3.3-0.3,7.1-0.5,7.8-0.6c5.4-0.2,10.7,0,16,0.6c1.8,2.8,5.4,4.8,9.5,4.8
	c5.9,0,10.7-4,10.7-9S236,317,230.1,317z M127,356.8c-3,0-5.5-2.4-5.5-5.5c0-3,2.4-5.5,5.5-5.5s5.5,2.4,5.5,5.5
	C132.5,354.4,130,356.8,127,356.8z M120.3,338.3c-8.9,0-16.1-7.2-16.1-16.1c0-8.9,7.2-16.1,16.1-16.1c8.9,0,16.1,7.2,16.1,16.1
	C136.4,331.1,129.2,338.3,120.3,338.3z M170.9,313.9c0,3-2.4,5.5-5.5,5.5c-3,0-5.5-2.4-5.5-5.5c0-3,2.4-5.5,5.5-5.5
	C168.5,308.5,170.9,310.9,170.9,313.9z M163.8,289.8c2.4,0,4.3,1.9,4.3,4.3c0,2.4-1.9,4.3-4.3,4.3s-4.3-1.9-4.3-4.3
	C159.6,291.7,161.5,289.8,163.8,289.8z M144.6,304.9c-3,0-5.5-2.4-5.5-5.5c0-3,2.4-5.5,5.5-5.5c3,0,5.5,2.4,5.5,5.5
	C150.1,302.5,147.6,304.9,144.6,304.9z M160,358.9c-6.9,0-12.4-5.6-12.4-12.4c0-6.9,5.6-12.4,12.4-12.4c6.9,0,12.4,5.6,12.4,12.4
	C172.5,353.4,166.9,358.9,160,358.9z"/>
</svg>
